<svg width="1920" height="959" viewBox="0 0 1920 959" fill="none" xmlns="http://www.w3.org/2000/svg">
<path d="M1848.2 318.075C1848.2 319.494 1847.05 320.625 1845.65 320.625C1844.25 320.625 1843.1 319.475 1843.1 318.075C1843.1 316.655 1844.25 315.524 1845.65 315.524C1847.05 315.524 1848.2 316.655 1848.2 318.075Z" fill="#424242"/>
<path d="M1863.79 318.075C1863.79 319.494 1862.64 320.625 1861.24 320.625C1859.84 320.625 1858.69 319.475 1858.69 318.075C1858.69 316.655 1859.84 315.524 1861.24 315.524C1862.64 315.524 1863.79 316.655 1863.79 318.075Z" fill="#424242"/>
<path d="M1879.36 318.075C1879.36 319.494 1878.21 320.625 1876.81 320.625C1875.41 320.625 1874.26 319.475 1874.26 318.075C1874.26 316.655 1875.41 315.524 1876.81 315.524C1878.21 315.524 1879.36 316.655 1879.36 318.075Z" fill="#424242"/>
<path d="M1848.2 332.842C1848.2 334.261 1847.05 335.392 1845.65 335.392C1844.25 335.392 1843.1 334.242 1843.1 332.842C1843.1 331.442 1844.25 330.291 1845.65 330.291C1847.05 330.291 1848.2 331.442 1848.2 332.842Z" fill="#424242"/>
<path d="M1863.79 332.842C1863.79 334.261 1862.64 335.392 1861.24 335.392C1859.84 335.392 1858.69 334.242 1858.69 332.842C1858.69 331.442 1859.84 330.291 1861.24 330.291C1862.64 330.291 1863.79 331.442 1863.79 332.842Z" fill="#424242"/>
<path d="M1879.36 332.842C1879.36 334.261 1878.21 335.392 1876.81 335.392C1875.41 335.392 1874.26 334.242 1874.26 332.842C1874.26 331.442 1875.41 330.291 1876.81 330.291C1878.21 330.291 1879.36 331.442 1879.36 332.842Z" fill="#424242"/>
<path d="M1848.2 347.628C1848.2 349.047 1847.05 350.178 1845.65 350.178C1844.25 350.178 1843.1 349.028 1843.1 347.628C1843.1 346.209 1844.25 345.077 1845.65 345.077C1847.05 345.077 1848.2 346.228 1848.2 347.628Z" fill="#424242"/>
<path d="M1863.79 347.628C1863.79 349.047 1862.64 350.178 1861.24 350.178C1859.84 350.178 1858.69 349.028 1858.69 347.628C1858.69 346.209 1859.84 345.077 1861.24 345.077C1862.64 345.077 1863.79 346.228 1863.79 347.628Z" fill="#424242"/>
<path d="M1879.36 347.628C1879.36 349.047 1878.21 350.178 1876.81 350.178C1875.41 350.178 1874.26 349.028 1874.26 347.628C1874.26 346.209 1875.41 345.077 1876.81 345.077C1878.21 345.077 1879.36 346.228 1879.36 347.628Z" fill="#424242"/>
<path d="M193.181 651.09C193.181 652.253 192.238 653.18 191.091 653.18C189.928 653.18 189 652.237 189 651.09C189 649.943 189.943 649 191.091 649C192.238 649 193.181 649.943 193.181 651.09Z" fill="#424242"/>
<path d="M205.957 651.09C205.957 652.253 205.014 653.18 203.867 653.18C202.704 653.18 201.777 652.237 201.777 651.09C201.777 649.943 202.72 649 203.867 649C205.014 649 205.957 649.943 205.957 651.09Z" fill="#424242"/>
<path d="M218.718 651.09C218.718 652.253 217.776 653.18 216.628 653.18C215.465 653.18 214.538 652.237 214.538 651.09C214.538 649.943 215.481 649 216.628 649C217.776 649 218.718 649.943 218.718 651.09Z" fill="#424242"/>
<path d="M231.495 651.09C231.495 652.253 230.552 653.18 229.405 653.18C228.242 653.18 227.315 652.237 227.315 651.09C227.315 649.943 228.258 649 229.405 649C230.552 649 231.495 649.943 231.495 651.09Z" fill="#424242"/>
<path d="M244.257 651.09C244.257 652.253 243.314 653.18 242.166 653.18C241.003 653.18 240.076 652.237 240.076 651.09C240.076 649.943 241.019 649 242.166 649C243.314 649 244.257 649.943 244.257 651.09Z" fill="#424242"/>
<path d="M257.033 651.09C257.033 652.253 256.09 653.18 254.943 653.18C253.78 653.18 252.853 652.237 252.853 651.09C252.853 649.943 253.796 649 254.943 649C256.09 649 257.033 649.943 257.033 651.09Z" fill="#424242"/>
<path d="M193.18 663.207C193.18 664.37 192.237 665.298 191.09 665.298C189.927 665.298 189 664.355 189 663.207C189 662.044 189.943 661.117 191.09 661.117C192.237 661.117 193.18 662.06 193.18 663.207Z" fill="#424242"/>
<path d="M205.957 663.207C205.957 664.37 205.014 665.298 203.867 665.298C202.704 665.298 201.777 664.355 201.777 663.207C201.777 662.044 202.72 661.117 203.867 661.117C205.014 661.117 205.957 662.06 205.957 663.207Z" fill="#424242"/>
<path d="M218.718 663.207C218.718 664.37 217.776 665.298 216.628 665.298C215.465 665.298 214.538 664.355 214.538 663.207C214.538 662.044 215.481 661.117 216.628 661.117C217.776 661.117 218.718 662.06 218.718 663.207Z" fill="#424242"/>
<path d="M231.495 663.207C231.495 664.37 230.552 665.298 229.405 665.298C228.242 665.298 227.315 664.355 227.315 663.207C227.315 662.044 228.258 661.117 229.405 661.117C230.552 661.117 231.495 662.06 231.495 663.207Z" fill="#424242"/>
<path d="M244.257 663.207C244.257 664.37 243.314 665.298 242.166 665.298C241.003 665.298 240.076 664.355 240.076 663.207C240.076 662.044 241.019 661.117 242.166 661.117C243.314 661.117 244.257 662.06 244.257 663.207Z" fill="#424242"/>
<path d="M257.033 663.207C257.033 664.37 256.09 665.298 254.943 665.298C253.78 665.298 252.853 664.355 252.853 663.207C252.853 662.044 253.796 661.117 254.943 661.117C256.09 661.117 257.033 662.06 257.033 663.207Z" fill="#424242"/>
<path d="M193.18 675.324C193.18 676.487 192.237 677.414 191.09 677.414C189.927 677.414 189 676.471 189 675.324C189 674.161 189.943 673.233 191.09 673.233C192.237 673.233 193.18 674.161 193.18 675.324Z" fill="#424242"/>
<path d="M205.957 675.324C205.957 676.487 205.014 677.414 203.867 677.414C202.704 677.414 201.777 676.471 201.777 675.324C201.777 674.161 202.72 673.233 203.867 673.233C205.014 673.233 205.957 674.161 205.957 675.324Z" fill="#424242"/>
<path d="M218.718 675.324C218.718 676.487 217.776 677.414 216.628 677.414C215.465 677.414 214.538 676.471 214.538 675.324C214.538 674.161 215.481 673.233 216.628 673.233C217.776 673.233 218.718 674.161 218.718 675.324Z" fill="#424242"/>
<path d="M231.495 675.324C231.495 676.487 230.552 677.414 229.405 677.414C228.242 677.414 227.315 676.471 227.315 675.324C227.315 674.161 228.258 673.233 229.405 673.233C230.552 673.233 231.495 674.161 231.495 675.324Z" fill="#424242"/>
<path d="M244.257 675.324C244.257 676.487 243.314 677.414 242.166 677.414C241.003 677.414 240.076 676.471 240.076 675.324C240.076 674.161 241.019 673.233 242.166 673.233C243.314 673.233 244.257 674.161 244.257 675.324Z" fill="#424242"/>
<path d="M257.033 675.324C257.033 676.487 256.09 677.414 254.943 677.414C253.78 677.414 252.853 676.471 252.853 675.324C252.853 674.161 253.796 673.233 254.943 673.233C256.09 673.233 257.033 674.161 257.033 675.324Z" fill="#424242"/>
<path d="M1671 953C1672.11 953 1673 953.902 1673 955C1673 956.113 1672.1 957 1671 957C1669.89 957 1669 956.098 1669 955C1669 953.902 1669.89 953 1671 953Z" fill="#3E3E3E"/>
<path d="M1671 940C1672.11 940 1673 940.902 1673 942C1673 943.113 1672.1 944 1671 944C1669.89 944 1669 943.098 1669 942C1669 940.887 1669.89 940 1671 940Z" fill="#3E3E3E"/>
<path d="M1683 953C1684.11 953 1685 953.902 1685 955C1685 956.113 1684.1 957 1683 957C1681.9 957 1681 956.098 1681 955C1680.99 953.902 1681.89 953 1683 953Z" fill="#3E3E3E"/>
<path d="M1683 940C1684.11 940 1685 940.902 1685 942C1685 943.113 1684.1 944 1683 944C1681.9 944 1681 943.098 1681 942C1680.99 940.887 1681.89 940 1683 940Z" fill="#3E3E3E"/>
<path d="M1695 953C1696.11 953 1697 953.902 1697 955C1697 956.113 1696.1 957 1695 957C1693.89 957 1693 956.098 1693 955C1692.99 953.902 1693.89 953 1695 953Z" fill="#3E3E3E"/>
<path d="M1695 940C1696.11 940 1697 940.902 1697 942C1697 943.113 1696.1 944 1695 944C1693.89 944 1693 943.098 1693 942C1692.99 940.887 1693.89 940 1695 940Z" fill="#3E3E3E"/>
<path d="M1918.14 620.799C1918.14 619.38 1919.29 618.248 1920.69 618.248C1922.11 618.248 1923.24 619.399 1923.24 620.799C1923.24 622.218 1922.09 623.349 1920.69 623.349C1919.29 623.349 1918.14 622.218 1918.14 620.799Z" fill="#424242"/>
<path d="M1902.57 620.799C1902.57 619.38 1903.72 618.248 1905.12 618.248C1906.54 618.248 1907.67 619.399 1907.67 620.799C1907.67 622.218 1906.52 623.349 1905.12 623.349C1903.72 623.349 1902.57 622.218 1902.57 620.799Z" fill="#424242"/>
<path d="M1886.98 620.799C1886.98 619.38 1888.13 618.248 1889.53 618.248C1890.95 618.248 1892.08 619.399 1892.08 620.799C1892.08 622.218 1890.93 623.349 1889.53 623.349C1888.13 623.349 1886.98 622.218 1886.98 620.799Z" fill="#424242"/>
<path d="M1918.14 606.013C1918.14 604.593 1919.29 603.462 1920.69 603.462C1922.11 603.462 1923.24 604.613 1923.24 606.013C1923.24 607.413 1922.09 608.563 1920.69 608.563C1919.29 608.563 1918.14 607.432 1918.14 606.013Z" fill="#424242"/>
<path d="M1902.57 606.013C1902.57 604.593 1903.72 603.462 1905.12 603.462C1906.54 603.462 1907.67 604.613 1907.67 606.013C1907.67 607.413 1906.52 608.563 1905.12 608.563C1903.72 608.563 1902.57 607.432 1902.57 606.013Z" fill="#424242"/>
<path d="M1886.98 606.013C1886.98 604.593 1888.13 603.462 1889.53 603.462C1890.95 603.462 1892.08 604.613 1892.08 606.013C1892.08 607.413 1890.93 608.563 1889.53 608.563C1888.13 608.563 1886.98 607.432 1886.98 606.013Z" fill="#424242"/>
<path d="M1918.14 591.226C1918.14 589.807 1919.29 588.676 1920.69 588.676C1922.11 588.676 1923.24 589.826 1923.24 591.226C1923.24 592.646 1922.09 593.777 1920.69 593.777C1919.29 593.796 1918.14 592.646 1918.14 591.226Z" fill="#424242"/>
<path d="M1902.57 591.226C1902.57 589.807 1903.72 588.676 1905.12 588.676C1906.54 588.676 1907.67 589.826 1907.67 591.226C1907.67 592.646 1906.52 593.777 1905.12 593.777C1903.72 593.796 1902.57 592.646 1902.57 591.226Z" fill="#424242"/>
<path d="M1886.98 591.226C1886.98 589.807 1888.13 588.676 1889.53 588.676C1890.95 588.676 1892.08 589.826 1892.08 591.226C1892.08 592.646 1890.93 593.777 1889.53 593.777C1888.13 593.796 1886.98 592.646 1886.98 591.226Z" fill="#424242"/>
<path opacity="0.74" d="M1610 378H1606V382H1610V378Z" fill="#444444"/>
<path opacity="0.74" d="M1610 403H1606V406H1610V403Z" fill="#444444"/>
<path opacity="0.74" d="M1610 427H1606V430H1610V427Z" fill="#444444"/>
<path opacity="0.74" d="M1610 451H1606V455H1610V451Z" fill="#444444"/>
<path opacity="0.74" d="M1610 475H1606V479H1610V475Z" fill="#444444"/>
<g opacity="0.74">
<path opacity="0.74" d="M174.16 864.539H170.718V867.981H174.16V864.539Z" fill="#444444"/>
<path opacity="0.74" d="M174.16 888.788H170.718V892.23H174.16V888.788Z" fill="#444444"/>
<path opacity="0.74" d="M174.16 913.053H170.718V916.494H174.16V913.053Z" fill="#444444"/>
<path opacity="0.74" d="M174.16 937.303H170.718V940.744H174.16V937.303Z" fill="#444444"/>
</g>
<path d="M1618 591H1601V597H1618V591Z" fill="#3C3C3C"/>
<path d="M1607 585V603H1613V585H1607Z" fill="#3C3C3C"/>
<path opacity="0.79" d="M90.7393 500.595H85.1396V495H79.3234V500.595H73.7393V506.405H79.3234V512H85.1396V506.405H90.7393V500.595Z" fill="#444444"/>
<path opacity="0.79" d="M21.7393 921.913H15.8266V916H9.66828V921.913H3.73926V928.071H9.66828V934H15.8266V928.071H21.7393V921.913Z" fill="#444444"/>
<path opacity="0.79" d="M213.739 826.6H207.81V821H201.652V826.6H195.739V832.416H201.652V838H207.81V832.416H213.739V826.6Z" fill="#444444"/>
<path opacity="0.79" d="M1627 859.6H1621.4V854H1615.58V859.6H1610V865.416H1615.58V871H1621.4V865.416H1627V859.6Z" fill="#444444"/>
<path opacity="0.79" d="M1921.82 391.968H1900.75V399.179H1921.82V391.968Z" fill="#444444"/>
<path opacity="0.79" d="M1914.9 385.025H1907.69V406.102H1914.9V385.025Z" fill="#444444"/>
<path opacity="0.79" d="M1402 383.6H1396.4V378H1390.58V383.6H1385V389.416H1390.58V395H1396.4V389.416H1402V383.6Z" fill="#444444"/>
<path opacity="0.79" d="M396.739 322.595H391.155V317H385.339V322.595H379.739V328.405H385.339V334H391.155V328.405H396.739V322.595Z" fill="#444444"/>
<path d="M1829 793H1812V799H1829V793Z" fill="#3C3C3C"/>
<path d="M1817 787V804H1823V787H1817Z" fill="#3C3C3C"/>
<path d="M131.272 5.67188H114V11.581H131.272V5.67188Z" fill="#3C3C3C"/>
<path d="M119.68 -0.000131607V17.2715H125.589V-0.000131607H119.68Z" fill="#3C3C3C"/>
<path d="M1843.35 545.008L1843.04 544.72L1946.3 436.46L1946.58 436.729L1843.35 545.008Z" fill="#444444"/>
<path d="M1361.24 935L1361 934.764L1445.76 846L1446 846.22L1361.24 935Z" fill="#444444"/>
<path d="M1386.24 931L1386 930.78L1470.76 842L1471 842.236L1386.24 931Z" fill="#444444"/>
<path d="M1412.24 927L1412 926.764L1496.76 838L1497 838.22L1412.24 927Z" fill="#444444"/>
<path d="M231.195 288.964L146.528 377.627L146.767 377.855L231.434 289.192L231.195 288.964Z" fill="#444444"/>
<path d="M256.63 284.988L171.963 373.651L172.202 373.879L256.869 285.215L256.63 284.988Z" fill="#444444"/>
<path d="M282.053 281L197.386 369.664L197.625 369.891L282.292 281.228L282.053 281Z" fill="#444444"/>
<path d="M30.6666 762.214L-54 850.877L-53.7613 851.105L30.9053 762.442L30.6666 762.214Z" fill="#444444"/>
<path d="M56.1017 758.237L-28.5649 846.9L-28.3263 847.128L56.3403 758.465L56.1017 758.237Z" fill="#444444"/>
<path d="M81.525 754.25L-3.1416 842.913L-2.90293 843.141L81.7637 754.478L81.525 754.25Z" fill="#444444"/>
<path d="M1843 158.008C1843 164.081 1838.08 169 1831.99 169C1825.92 169 1821 164.081 1821 158.008C1821 151.935 1825.92 147 1831.99 147C1838.07 147 1843 151.935 1843 158.008Z" fill="#424242"/>
</svg>
