<svg width="1815" height="756" viewBox="0 0 1815 756" fill="none" xmlns="http://www.w3.org/2000/svg">
<path opacity="0.74" d="M1548.26 351H1544.26V355H1548.26V351Z" fill="#444444"/>
<path opacity="0.74" d="M1548.26 376H1544.26V379H1548.26V376Z" fill="#444444"/>
<path opacity="0.74" d="M1548.26 400H1544.26V403H1548.26V400Z" fill="#444444"/>
<path opacity="0.74" d="M1548.26 424H1544.26V428H1548.26V424Z" fill="#444444"/>
<path opacity="0.74" d="M1548.26 448H1544.26V452H1548.26V448Z" fill="#444444"/>
<g opacity="0.74">
<path opacity="0.74" d="M161.442 275H158V278.442H161.442V275Z" fill="#444444"/>
<path opacity="0.74" d="M161.442 299.249H158V302.691H161.442V299.249Z" fill="#444444"/>
<path opacity="0.74" d="M161.442 323.514H158V326.956H161.442V323.514Z" fill="#444444"/>
<path opacity="0.74" d="M161.442 347.764H158V351.205H161.442V347.764Z" fill="#444444"/>
<path opacity="0.74" d="M161.442 372.029H158V375.471H161.442V372.029Z" fill="#444444"/>
</g>
<path opacity="0.74" d="M1814.61 633.093H1810.41V637.293H1814.61V633.093Z" fill="#444444"/>
<path opacity="0.74" d="M1814.62 662.704H1810.42V666.904H1814.62V662.704Z" fill="#444444"/>
<path opacity="0.74" d="M1814.62 692.295H1810.42V696.495H1814.62V692.295Z" fill="#444444"/>
<path opacity="0.74" d="M1814.62 721.906H1810.42V726.106H1814.62V721.906Z" fill="#444444"/>
<path opacity="0.74" d="M1814.62 751.498H1810.42V755.698H1814.62V751.498Z" fill="#444444"/>
<path opacity="0.79" d="M18 497.913H12.0874V492H5.92902V497.913H0V504.071H5.92902V510H12.0874V504.071H18V497.913Z" fill="#444444"/>
<path opacity="0.79" d="M223 720.924H217.4V715H211.584V720.924H206V727.076H211.584V733H217.4V727.076H223V720.924Z" fill="#444444"/>
<path opacity="0.79" d="M1467 98.5996H1461.4V93H1455.58V98.5996H1450V104.416H1455.58V110H1461.4V104.416H1467V98.5996Z" fill="#444444"/>
<path opacity="0.79" d="M1601 672.6H1595.4V667H1589.58V672.6H1584V678.416H1589.58V684H1595.4V678.416H1601V672.6Z" fill="#444444"/>
<path opacity="0.79" d="M103 5.59455H97.4158V0H91.5996V5.59455H86V11.4055H91.5996V17H97.4158V11.4055H103V5.59455Z" fill="#444444"/>
<path d="M1764 374H1747V380H1764V374Z" fill="#3C3C3C"/>
<path d="M1752 368V385H1758V368H1752Z" fill="#3C3C3C"/>
</svg>
