<svg width="1920" height="810" viewBox="0 0 1920 810" fill="none" xmlns="http://www.w3.org/2000/svg">
<path d="M1848.2 37.9994C1848.2 39.4171 1847.05 40.5475 1845.65 40.5475C1844.25 40.5475 1843.1 39.398 1843.1 37.9994C1843.1 36.5816 1844.25 35.4512 1845.65 35.4512C1847.05 35.4512 1848.2 36.5816 1848.2 37.9994Z" fill="#424242"/>
<path d="M1863.79 37.9994C1863.79 39.4171 1862.64 40.5475 1861.24 40.5475C1859.84 40.5475 1858.69 39.398 1858.69 37.9994C1858.69 36.5816 1859.84 35.4512 1861.24 35.4512C1862.64 35.4512 1863.79 36.5816 1863.79 37.9994Z" fill="#424242"/>
<path d="M1879.36 37.9994C1879.36 39.4171 1878.21 40.5475 1876.81 40.5475C1875.41 40.5475 1874.26 39.398 1874.26 37.9994C1874.26 36.5816 1875.41 35.4512 1876.81 35.4512C1878.21 35.4512 1879.36 36.5816 1879.36 37.9994Z" fill="#424242"/>
<path d="M1848.2 52.7518C1848.2 54.1696 1847.05 55.3 1845.65 55.3C1844.25 55.3 1843.1 54.1504 1843.1 52.7518C1843.1 51.3532 1844.25 50.2036 1845.65 50.2036C1847.05 50.2036 1848.2 51.3532 1848.2 52.7518Z" fill="#424242"/>
<path d="M1863.79 52.7518C1863.79 54.1696 1862.64 55.3 1861.24 55.3C1859.84 55.3 1858.69 54.1504 1858.69 52.7518C1858.69 51.3532 1859.84 50.2036 1861.24 50.2036C1862.64 50.2036 1863.79 51.3532 1863.79 52.7518Z" fill="#424242"/>
<path d="M1879.36 52.7518C1879.36 54.1696 1878.21 55.3 1876.81 55.3C1875.41 55.3 1874.26 54.1504 1874.26 52.7518C1874.26 51.3532 1875.41 50.2036 1876.81 50.2036C1878.21 50.2036 1879.36 51.3532 1879.36 52.7518Z" fill="#424242"/>
<path d="M1848.2 67.5233C1848.2 68.9411 1847.05 70.0715 1845.65 70.0715C1844.25 70.0715 1843.1 68.9219 1843.1 67.5233C1843.1 66.1055 1844.25 64.9751 1845.65 64.9751C1847.05 64.9751 1848.2 66.1247 1848.2 67.5233Z" fill="#424242"/>
<path d="M1863.79 67.5233C1863.79 68.9411 1862.64 70.0715 1861.24 70.0715C1859.84 70.0715 1858.69 68.9219 1858.69 67.5233C1858.69 66.1055 1859.84 64.9751 1861.24 64.9751C1862.64 64.9751 1863.79 66.1247 1863.79 67.5233Z" fill="#424242"/>
<path d="M1879.36 67.5233C1879.36 68.9411 1878.21 70.0715 1876.81 70.0715C1875.41 70.0715 1874.26 68.9219 1874.26 67.5233C1874.26 66.1055 1875.41 64.9751 1876.81 64.9751C1878.21 64.9751 1879.36 66.1247 1879.36 67.5233Z" fill="#424242"/>
<path d="M193.181 370.69C193.181 371.852 192.238 372.778 191.091 372.778C189.928 372.778 189.001 371.836 189.001 370.69C189.001 369.544 189.943 368.602 191.091 368.602C192.238 368.602 193.181 369.544 193.181 370.69Z" fill="#424242"/>
<path d="M205.957 370.69C205.957 371.852 205.014 372.778 203.867 372.778C202.704 372.778 201.777 371.836 201.777 370.69C201.777 369.544 202.72 368.602 203.867 368.602C205.014 368.602 205.957 369.544 205.957 370.69Z" fill="#424242"/>
<path d="M218.719 370.69C218.719 371.852 217.776 372.778 216.628 372.778C215.465 372.778 214.538 371.836 214.538 370.69C214.538 369.544 215.481 368.602 216.628 368.602C217.776 368.602 218.719 369.544 218.719 370.69Z" fill="#424242"/>
<path d="M231.495 370.69C231.495 371.852 230.553 372.778 229.405 372.778C228.242 372.778 227.315 371.836 227.315 370.69C227.315 369.544 228.258 368.602 229.405 368.602C230.553 368.602 231.495 369.544 231.495 370.69Z" fill="#424242"/>
<path d="M244.257 370.69C244.257 371.852 243.314 372.778 242.166 372.778C241.003 372.778 240.076 371.836 240.076 370.69C240.076 369.544 241.019 368.602 242.166 368.602C243.314 368.602 244.257 369.544 244.257 370.69Z" fill="#424242"/>
<path d="M257.034 370.69C257.034 371.852 256.091 372.778 254.943 372.778C253.78 372.778 252.853 371.836 252.853 370.69C252.853 369.544 253.796 368.602 254.943 368.602C256.091 368.602 257.034 369.544 257.034 370.69Z" fill="#424242"/>
<path d="M193.18 382.795C193.18 383.957 192.237 384.883 191.09 384.883C189.927 384.883 189 383.941 189 382.795C189 381.633 189.943 380.707 191.09 380.707C192.237 380.707 193.18 381.649 193.18 382.795Z" fill="#424242"/>
<path d="M205.957 382.795C205.957 383.957 205.014 384.883 203.867 384.883C202.704 384.883 201.777 383.941 201.777 382.795C201.777 381.633 202.72 380.707 203.867 380.707C205.014 380.707 205.957 381.649 205.957 382.795Z" fill="#424242"/>
<path d="M218.719 382.795C218.719 383.957 217.776 384.883 216.628 384.883C215.465 384.883 214.538 383.941 214.538 382.795C214.538 381.633 215.481 380.707 216.628 380.707C217.776 380.707 218.719 381.649 218.719 382.795Z" fill="#424242"/>
<path d="M231.495 382.795C231.495 383.957 230.553 384.883 229.405 384.883C228.242 384.883 227.315 383.941 227.315 382.795C227.315 381.633 228.258 380.707 229.405 380.707C230.553 380.707 231.495 381.649 231.495 382.795Z" fill="#424242"/>
<path d="M244.257 382.795C244.257 383.957 243.314 384.883 242.166 384.883C241.003 384.883 240.076 383.941 240.076 382.795C240.076 381.633 241.019 380.707 242.166 380.707C243.314 380.707 244.257 381.649 244.257 382.795Z" fill="#424242"/>
<path d="M257.034 382.795C257.034 383.957 256.091 384.883 254.943 384.883C253.78 384.883 252.853 383.941 252.853 382.795C252.853 381.633 253.796 380.707 254.943 380.707C256.091 380.707 257.034 381.649 257.034 382.795Z" fill="#424242"/>
<path d="M193.18 394.9C193.18 396.062 192.237 396.988 191.09 396.988C189.927 396.988 189 396.046 189 394.9C189 393.738 189.943 392.812 191.09 392.812C192.237 392.812 193.18 393.738 193.18 394.9Z" fill="#424242"/>
<path d="M205.957 394.9C205.957 396.062 205.014 396.988 203.867 396.988C202.704 396.988 201.777 396.046 201.777 394.9C201.777 393.738 202.72 392.812 203.867 392.812C205.014 392.812 205.957 393.738 205.957 394.9Z" fill="#424242"/>
<path d="M218.719 394.9C218.719 396.062 217.776 396.988 216.628 396.988C215.465 396.988 214.538 396.046 214.538 394.9C214.538 393.738 215.481 392.812 216.628 392.812C217.776 392.812 218.719 393.738 218.719 394.9Z" fill="#424242"/>
<path d="M231.495 394.9C231.495 396.062 230.553 396.988 229.405 396.988C228.242 396.988 227.315 396.046 227.315 394.9C227.315 393.738 228.258 392.812 229.405 392.812C230.553 392.812 231.495 393.738 231.495 394.9Z" fill="#424242"/>
<path d="M244.257 394.9C244.257 396.062 243.314 396.988 242.166 396.988C241.003 396.988 240.076 396.046 240.076 394.9C240.076 393.738 241.019 392.812 242.166 392.812C243.314 392.812 244.257 393.738 244.257 394.9Z" fill="#424242"/>
<path d="M257.034 394.9C257.034 396.062 256.091 396.988 254.943 396.988C253.78 396.988 252.853 396.046 252.853 394.9C252.853 393.738 253.796 392.812 254.943 392.812C256.091 392.812 257.034 393.738 257.034 394.9Z" fill="#424242"/>
<path d="M1671 723.256C1672.11 723.256 1673 724.157 1673 725.254C1673 726.366 1672.1 727.252 1671 727.252C1669.89 727.252 1669 726.351 1669 725.254C1669 724.157 1669.89 723.256 1671 723.256Z" fill="#3E3E3E"/>
<path d="M1671 710.269C1672.11 710.269 1673 711.17 1673 712.267C1673 713.378 1672.1 714.265 1671 714.265C1669.89 714.265 1669 713.363 1669 712.267C1669 711.155 1669.89 710.269 1671 710.269Z" fill="#3E3E3E"/>
<path d="M1671 697.281C1672.11 697.281 1673 698.408 1673 699.779C1673 701.168 1672.1 702.276 1671 702.276C1669.89 702.276 1669 701.15 1669 699.779C1669 698.408 1669.89 697.281 1671 697.281Z" fill="#3E3E3E"/>
<path d="M1671 685.293C1672.11 685.293 1673 686.194 1673 687.291C1673 688.403 1672.1 689.289 1671 689.289C1669.89 689.289 1669 688.388 1669 687.291C1669 686.179 1669.89 685.293 1671 685.293Z" fill="#3E3E3E"/>
<path d="M1671 672.306C1672.11 672.306 1673 673.207 1673 674.304C1673 675.415 1672.1 676.302 1671 676.302C1669.89 676.302 1669 675.4 1669 674.304C1669 673.207 1669.89 672.306 1671 672.306Z" fill="#3E3E3E"/>
<path d="M1671 659.318C1672.11 659.318 1673 660.22 1673 661.316C1673 662.428 1672.1 663.314 1671 663.314C1669.89 663.314 1669 662.413 1669 661.316C1669 660.205 1669.89 659.318 1671 659.318Z" fill="#3E3E3E"/>
<path d="M1683 723.256C1684.11 723.256 1685 724.157 1685 725.254C1685 726.366 1684.1 727.252 1683 727.252C1681.9 727.252 1681 726.351 1681 725.254C1680.99 724.157 1681.89 723.256 1683 723.256Z" fill="#3E3E3E"/>
<path d="M1683 710.269C1684.11 710.269 1685 711.17 1685 712.267C1685 713.378 1684.1 714.265 1683 714.265C1681.9 714.265 1681 713.363 1681 712.267C1680.99 711.155 1681.89 710.269 1683 710.269Z" fill="#3E3E3E"/>
<path d="M1683 697.281C1684.11 697.281 1685 698.408 1685 699.779C1685 701.168 1684.1 702.276 1683 702.276C1681.9 702.276 1681 701.15 1681 699.779C1680.99 698.408 1681.89 697.281 1683 697.281Z" fill="#3E3E3E"/>
<path d="M1683 685.293C1684.11 685.293 1685 686.194 1685 687.291C1685 688.403 1684.1 689.289 1683 689.289C1681.9 689.289 1681 688.388 1681 687.291C1680.99 686.179 1681.89 685.293 1683 685.293Z" fill="#3E3E3E"/>
<path d="M1683 672.306C1684.11 672.306 1685 673.207 1685 674.304C1685 675.415 1684.1 676.302 1683 676.302C1681.9 676.302 1681 675.4 1681 674.304C1680.99 673.207 1681.89 672.306 1683 672.306Z" fill="#3E3E3E"/>
<path d="M1683 659.318C1684.11 659.318 1685 660.22 1685 661.316C1685 662.428 1684.1 663.314 1683 663.314C1681.9 663.314 1681 662.413 1681 661.316C1680.99 660.205 1681.89 659.318 1683 659.318Z" fill="#3E3E3E"/>
<path d="M1695 723.256C1696.11 723.256 1697 724.157 1697 725.254C1697 726.366 1696.1 727.252 1695 727.252C1693.89 727.252 1693 726.351 1693 725.254C1692.99 724.157 1693.89 723.256 1695 723.256Z" fill="#3E3E3E"/>
<path d="M1695 710.269C1696.11 710.269 1697 711.17 1697 712.267C1697 713.378 1696.1 714.265 1695 714.265C1693.89 714.265 1693 713.363 1693 712.267C1692.99 711.155 1693.89 710.269 1695 710.269Z" fill="#3E3E3E"/>
<path d="M1695 697.281C1696.11 697.281 1697 698.408 1697 699.779C1697 701.168 1696.1 702.276 1695 702.276C1693.89 702.276 1693 701.15 1693 699.779C1692.99 698.408 1693.89 697.281 1695 697.281Z" fill="#3E3E3E"/>
<path d="M1695 685.293C1696.11 685.293 1697 686.194 1697 687.291C1697 688.403 1696.1 689.289 1695 689.289C1693.89 689.289 1693 688.388 1693 687.291C1692.99 686.179 1693.89 685.293 1695 685.293Z" fill="#3E3E3E"/>
<path d="M1695 672.306C1696.11 672.306 1697 673.207 1697 674.304C1697 675.415 1696.1 676.302 1695 676.302C1693.89 676.302 1693 675.4 1693 674.304C1692.99 673.207 1693.89 672.306 1695 672.306Z" fill="#3E3E3E"/>
<path d="M1695 659.318C1696.11 659.318 1697 660.22 1697 661.316C1697 662.428 1696.1 663.314 1695 663.314C1693.89 663.314 1693 662.413 1693 661.316C1692.99 660.205 1693.89 659.318 1695 659.318Z" fill="#3E3E3E"/>
<path d="M1918.14 340.428C1918.14 339.01 1919.29 337.88 1920.69 337.88C1922.11 337.88 1923.24 339.029 1923.24 340.428C1923.24 341.846 1922.09 342.976 1920.69 342.976C1919.29 342.976 1918.14 341.846 1918.14 340.428Z" fill="#424242"/>
<path d="M1902.57 340.428C1902.57 339.01 1903.72 337.88 1905.12 337.88C1906.54 337.88 1907.67 339.029 1907.67 340.428C1907.67 341.846 1906.52 342.976 1905.12 342.976C1903.72 342.976 1902.57 341.846 1902.57 340.428Z" fill="#424242"/>
<path d="M1886.98 340.428C1886.98 339.01 1888.13 337.88 1889.53 337.88C1890.95 337.88 1892.08 339.029 1892.08 340.428C1892.08 341.846 1890.93 342.976 1889.53 342.976C1888.13 342.976 1886.98 341.846 1886.98 340.428Z" fill="#424242"/>
<path d="M1918.14 325.657C1918.14 324.239 1919.29 323.108 1920.69 323.108C1922.11 323.108 1923.24 324.258 1923.24 325.657C1923.24 327.055 1922.09 328.205 1920.69 328.205C1919.29 328.205 1918.14 327.074 1918.14 325.657Z" fill="#424242"/>
<path d="M1902.57 325.657C1902.57 324.239 1903.72 323.108 1905.12 323.108C1906.54 323.108 1907.67 324.258 1907.67 325.657C1907.67 327.055 1906.52 328.205 1905.12 328.205C1903.72 328.205 1902.57 327.074 1902.57 325.657Z" fill="#424242"/>
<path d="M1886.98 325.658C1886.98 324.24 1888.13 323.109 1889.53 323.109C1890.95 323.109 1892.08 324.259 1892.08 325.658C1892.08 327.056 1890.93 328.206 1889.53 328.206C1888.13 328.206 1886.98 327.075 1886.98 325.658Z" fill="#424242"/>
<path d="M1918.14 310.885C1918.14 309.467 1919.29 308.337 1920.69 308.337C1922.11 308.337 1923.24 309.486 1923.24 310.885C1923.24 312.303 1922.09 313.433 1920.69 313.433C1919.29 313.452 1918.14 312.303 1918.14 310.885Z" fill="#424242"/>
<path d="M1902.57 310.885C1902.57 309.467 1903.72 308.337 1905.12 308.337C1906.54 308.337 1907.67 309.486 1907.67 310.885C1907.67 312.303 1906.52 313.433 1905.12 313.433C1903.72 313.452 1902.57 312.303 1902.57 310.885Z" fill="#424242"/>
<path d="M1886.98 310.885C1886.98 309.467 1888.13 308.337 1889.53 308.337C1890.95 308.337 1892.08 309.486 1892.08 310.885C1892.08 312.303 1890.93 313.433 1889.53 313.433C1888.13 313.452 1886.98 312.303 1886.98 310.885Z" fill="#424242"/>
<path opacity="0.74" d="M1610 97.8662H1606V101.862H1610V97.8662Z" fill="#444444"/>
<path opacity="0.74" d="M1610 122.842H1606V125.839H1610V122.842Z" fill="#444444"/>
<path opacity="0.74" d="M1610 146.818H1606V149.815H1610V146.818Z" fill="#444444"/>
<path opacity="0.74" d="M1610 170.795H1606V174.791H1610V170.795Z" fill="#444444"/>
<path opacity="0.74" d="M1610 194.771H1606V198.768H1610V194.771Z" fill="#444444"/>
<g opacity="0.74">
<path opacity="0.74" d="M174.16 583.932H170.718V587.37H174.16V583.932Z" fill="#444444"/>
<path opacity="0.74" d="M174.16 608.157H170.718V611.596H174.16V608.157Z" fill="#444444"/>
<path opacity="0.74" d="M174.16 632.398H170.718V635.837H174.16V632.398Z" fill="#444444"/>
<path opacity="0.74" d="M174.16 656.625H170.718V660.063H174.16V656.625Z" fill="#444444"/>
<path opacity="0.74" d="M174.16 680.866H170.718V684.305H174.16V680.866Z" fill="#444444"/>
</g>
<path opacity="0.74" d="M1876.35 687.384H1872.15V691.58H1876.35V687.384Z" fill="#444444"/>
<path opacity="0.74" d="M1876.35 716.965H1872.15V721.161H1876.35V716.965Z" fill="#444444"/>
<path opacity="0.74" d="M1876.35 746.527H1872.15V750.723H1876.35V746.527Z" fill="#444444"/>
<path opacity="0.74" d="M1876.35 776.11H1872.15V780.306H1876.35V776.11Z" fill="#444444"/>
<path opacity="0.74" d="M1876.35 805.673H1872.15V809.869H1876.35V805.673Z" fill="#444444"/>
<path d="M1618 310.658H1601V316.652H1618V310.658Z" fill="#3C3C3C"/>
<path d="M1607 304.664V322.646H1613V304.664H1607Z" fill="#3C3C3C"/>
<path d="M91.2717 702.971H74V708.874H91.2717V702.971Z" fill="#3C3C3C"/>
<path d="M79.6827 697.281V714.536H85.5918V697.281H79.6827Z" fill="#3C3C3C"/>
<path opacity="0.79" d="M90.7395 220.341H85.1399V214.752H79.3237V220.341H73.7395V226.146H79.3237V231.735H85.1399V226.146H90.7395V220.341Z" fill="#444444"/>
<path opacity="0.79" d="M21.7395 641.249H15.8269V635.342H9.66853V641.249H3.7395V647.401H9.66853V653.324H15.8269V647.401H21.7395V641.249Z" fill="#444444"/>
<path opacity="0.79" d="M578.74 688.214H573.14V682.296H567.324V688.214H561.74V694.361H567.324V700.278H573.14V694.361H578.74V688.214Z" fill="#444444"/>
<path opacity="0.79" d="M213.74 546.028H207.81V540.434H201.652V546.028H195.74V551.838H201.652V557.417H207.81V551.838H213.74V546.028Z" fill="#444444"/>
<path opacity="0.79" d="M1627 578.997H1621.4V573.402H1615.58V578.997H1610V584.807H1615.58V590.386H1621.4V584.807H1627V578.997Z" fill="#444444"/>
<path opacity="0.79" d="M1921.82 111.82H1900.75V119.024H1921.82V111.82Z" fill="#444444"/>
<path opacity="0.79" d="M1914.9 104.885H1907.69V125.941H1914.9V104.885Z" fill="#444444"/>
<path opacity="0.79" d="M1402 103.46H1396.4V97.8662H1390.58V103.46H1385V109.271H1390.58V114.85H1396.4V109.271H1402V103.46Z" fill="#444444"/>
<path opacity="0.79" d="M396.74 42.5149H391.155V36.9258H385.339V42.5149H379.74V48.3201H385.339V53.9092H391.155V48.3201H396.74V42.5149Z" fill="#444444"/>
<path d="M1829 512.462H1812V518.456H1829V512.462Z" fill="#3C3C3C"/>
<path d="M1817 506.468V523.451H1823V506.468H1817Z" fill="#3C3C3C"/>
<path d="M1402 699.279H1385V704.274H1402V699.279Z" fill="#393939"/>
<path d="M1390 693.285V710.269H1396V693.285H1390Z" fill="#393939"/>
<path d="M1843.35 264.711L1843.04 264.424L1946.3 156.27L1946.58 156.538L1843.35 264.711Z" fill="#444444"/>
<path d="M1361.24 654.323L1361 654.088L1445.76 565.41L1446 565.63L1361.24 654.323Z" fill="#444444"/>
<path d="M1386.24 650.327L1386 650.107L1470.76 561.414L1471 561.65L1386.24 650.327Z" fill="#444444"/>
<path d="M1412.24 646.331L1412 646.096L1496.76 557.418L1497 557.638L1412.24 646.331Z" fill="#444444"/>
<path d="M412.903 719.399L328.237 807.976L328.475 808.203L413.142 719.627L412.903 719.399Z" fill="#424242"/>
<path d="M438.338 715.427L353.672 804.004L353.91 804.232L438.577 715.655L438.338 715.427Z" fill="#424242"/>
<path d="M463.762 711.444L379.095 800.021L379.334 800.248L464 711.671L463.762 711.444Z" fill="#424242"/>
<path d="M231.195 8.91731L146.528 97.4941L146.767 97.7218L231.433 9.14501L231.195 8.91731Z" fill="#444444"/>
<path d="M256.63 4.94467L171.963 93.5215L172.202 93.7492L256.868 5.17237L256.63 4.94467Z" fill="#444444"/>
<path d="M282.053 0.960752L197.386 89.5376L197.625 89.7653L282.292 1.18845L282.053 0.960752Z" fill="#444444"/>
<path d="M30.6666 481.705L-54 570.282L-53.7613 570.51L30.9053 481.933L30.6666 481.705Z" fill="#444444"/>
<path d="M56.1015 477.732L-28.5651 566.309L-28.3265 566.536L56.3401 477.959L56.1015 477.732Z" fill="#444444"/>
<path d="M81.5252 473.749L-3.14145 562.326L-2.90278 562.554L81.7638 473.977L81.5252 473.749Z" fill="#444444"/>
</svg>
