<svg width="1920" height="756" viewBox="0 0 1920 756" fill="none" xmlns="http://www.w3.org/2000/svg">
<path d="M1891.94 717.966C1891.94 719.616 1890.6 720.932 1888.97 720.932C1887.32 720.932 1886 719.594 1886 717.966C1886 716.316 1887.34 715 1888.97 715C1890.6 715 1891.94 716.338 1891.94 717.966Z" fill="#61CAFF"/>
<path d="M1910.08 717.966C1910.08 719.616 1908.74 720.932 1907.11 720.932C1905.46 720.932 1904.14 719.594 1904.14 717.966C1904.14 716.316 1905.48 715 1907.11 715C1908.76 715 1910.08 716.338 1910.08 717.966Z" fill="#61CAFF"/>
<path d="M1891.94 735.159C1891.94 736.809 1890.6 738.125 1888.97 738.125C1887.32 738.125 1886 736.787 1886 735.159C1886 733.509 1887.34 732.193 1888.97 732.193C1890.6 732.193 1891.94 733.531 1891.94 735.159Z" fill="#61CAFF"/>
<path d="M1910.08 735.159C1910.08 736.809 1908.74 738.125 1907.11 738.125C1905.46 738.125 1904.14 736.787 1904.14 735.159C1904.14 733.509 1905.48 732.193 1907.11 732.193C1908.76 732.193 1910.08 733.531 1910.08 735.159Z" fill="#61CAFF"/>
<path d="M1891.94 752.353C1891.94 754.003 1890.6 755.319 1888.97 755.319C1887.32 755.319 1886 753.981 1886 752.353C1886 750.702 1887.34 749.387 1888.97 749.387C1890.6 749.387 1891.94 750.702 1891.94 752.353Z" fill="#61CAFF"/>
<path d="M1910.08 752.353C1910.08 754.003 1908.74 755.319 1907.11 755.319C1905.46 755.319 1904.14 753.981 1904.14 752.353C1904.14 750.702 1905.48 749.387 1907.11 749.387C1908.76 749.387 1910.08 750.702 1910.08 752.353Z" fill="#61CAFF"/>
<path d="M0.377197 2.96592C0.377197 4.61613 -0.963027 5.93184 -2.59363 5.93184C-4.24657 5.93184 -5.56445 4.59383 -5.56445 2.96592C-5.56445 1.31571 -4.22423 0 -2.59363 0C-0.94069 0 0.377197 1.33801 0.377197 2.96592Z" fill="#61CAFF"/>
<path d="M18.5369 2.96592C18.5369 4.61613 17.1966 5.93184 15.566 5.93184C13.9131 5.93184 12.5952 4.59383 12.5952 2.96592C12.5952 1.31571 13.9354 0 15.566 0C17.1966 0 18.5369 1.33801 18.5369 2.96592Z" fill="#61CAFF"/>
<path d="M36.6746 2.96592C36.6746 4.61613 35.3343 5.93184 33.7037 5.93184C32.0508 5.93184 30.7329 4.59383 30.7329 2.96592C30.7329 1.31571 32.0731 0 33.7037 0C35.3567 0 36.6746 1.33801 36.6746 2.96592Z" fill="#61CAFF"/>
<path d="M0.377197 20.1593C0.377197 21.8095 -0.963027 23.1252 -2.59363 23.1252C-4.24657 23.1252 -5.56445 21.7872 -5.56445 20.1593C-5.56445 18.5091 -4.22423 17.1934 -2.59363 17.1934C-0.94069 17.1934 0.377197 18.5314 0.377197 20.1593Z" fill="#61CAFF"/>
<path d="M18.5369 20.1593C18.5369 21.8095 17.1966 23.1252 15.566 23.1252C13.9131 23.1252 12.5952 21.7872 12.5952 20.1593C12.5952 18.5091 13.9354 17.1934 15.566 17.1934C17.1966 17.1934 18.5369 18.5314 18.5369 20.1593Z" fill="#61CAFF"/>
<path d="M36.6746 20.1593C36.6746 21.8095 35.3343 23.1252 33.7037 23.1252C32.0508 23.1252 30.7329 21.7872 30.7329 20.1593C30.7329 18.5091 32.0731 17.1934 33.7037 17.1934C35.3567 17.1934 36.6746 18.5314 36.6746 20.1593Z" fill="#61CAFF"/>
<path d="M0.377197 37.3526C0.377197 39.0028 -0.963027 40.3185 -2.59363 40.3185C-4.24657 40.3185 -5.56445 38.9805 -5.56445 37.3526C-5.56445 35.7024 -4.22423 34.3867 -2.59363 34.3867C-0.94069 34.3867 0.377197 35.7024 0.377197 37.3526Z" fill="#61CAFF"/>
<path d="M18.5369 37.3526C18.5369 39.0028 17.1966 40.3185 15.566 40.3185C13.9131 40.3185 12.5952 38.9805 12.5952 37.3526C12.5952 35.7024 13.9354 34.3867 15.566 34.3867C17.1966 34.3867 18.5369 35.7024 18.5369 37.3526Z" fill="#61CAFF"/>
<path d="M36.6746 37.3526C36.6746 39.0028 35.3343 40.3185 33.7037 40.3185C32.0508 40.3185 30.7329 38.9805 30.7329 37.3526C30.7329 35.7024 32.0731 34.3867 33.7037 34.3867C35.3567 34.3867 36.6746 35.7024 36.6746 37.3526Z" fill="#61CAFF"/>
<g opacity="0.74">
<path opacity="0.74" d="M1694.89 393.548H1690V398.432H1694.89V393.548Z" fill="#444444"/>
<path opacity="0.74" d="M1694.89 427.958H1690V432.841H1694.89V427.958Z" fill="#444444"/>
<path opacity="0.74" d="M1694.89 462.389H1690V467.272H1694.89V462.389Z" fill="#444444"/>
<path opacity="0.74" d="M1694.89 496.798H1690V501.682H1694.89V496.798Z" fill="#444444"/>
<path opacity="0.74" d="M1694.89 531.229H1690V536.113H1694.89V531.229Z" fill="#444444"/>
</g>
<path opacity="0.79" d="M1814.55 253.073H1806.46V245H1798.06V253.073H1790V261.457H1798.06V269.508H1806.46V261.457H1814.55V253.073Z" fill="#444444"/>
</svg>
