<svg width="206" height="61" viewBox="0 0 206 61" fill="none" xmlns="http://www.w3.org/2000/svg">
<path d="M84.125 30H81.125V12.275H92.15V15.1H84.125V20.075H91.325V22.85H84.125V30ZM101.159 17.75V20.7C100.826 20.65 100.509 20.625 100.209 20.625C98.0258 20.625 96.9342 21.8167 96.9342 24.2V30H94.0342V17.825H96.8592V19.775C97.1425 19.125 97.6008 18.6167 98.2342 18.25C98.8675 17.8667 99.5842 17.675 100.384 17.675C100.651 17.675 100.909 17.7 101.159 17.75ZM105.483 22.575H111.458C111.425 21.8083 111.15 21.1667 110.633 20.65C110.133 20.1333 109.408 19.875 108.458 19.875C107.591 19.875 106.891 20.15 106.358 20.7C105.825 21.2333 105.533 21.8583 105.483 22.575ZM111.783 25.75L114.233 26.525C113.883 27.6417 113.225 28.5667 112.258 29.3C111.308 30.0167 110.133 30.375 108.733 30.375C107 30.375 105.525 29.7833 104.308 28.6C103.108 27.4167 102.508 25.8333 102.508 23.85C102.508 21.9833 103.091 20.45 104.258 19.25C105.441 18.05 106.833 17.45 108.433 17.45C110.3 17.45 111.758 18.025 112.808 19.175C113.858 20.3083 114.383 21.8417 114.383 23.775C114.383 24.2917 114.358 24.6 114.308 24.7H105.408C105.441 25.6167 105.775 26.375 106.408 26.975C107.058 27.575 107.833 27.875 108.733 27.875C110.3 27.875 111.316 27.1667 111.783 25.75ZM116.079 26.7L118.604 26C118.654 26.5833 118.896 27.075 119.329 27.475C119.763 27.875 120.346 28.075 121.079 28.075C121.646 28.075 122.088 27.9417 122.404 27.675C122.738 27.4083 122.904 27.075 122.904 26.675C122.904 25.975 122.429 25.525 121.479 25.325L119.679 24.925C118.629 24.6917 117.821 24.2583 117.254 23.625C116.688 22.9917 116.404 22.2417 116.404 21.375C116.404 20.3083 116.838 19.3917 117.704 18.625C118.571 17.8417 119.629 17.45 120.879 17.45C121.679 17.45 122.388 17.5667 123.004 17.8C123.621 18.0333 124.096 18.3417 124.429 18.725C124.779 19.0917 125.046 19.45 125.229 19.8C125.413 20.15 125.529 20.5 125.579 20.85L123.129 21.55C123.063 21.0833 122.846 20.6667 122.479 20.3C122.129 19.9167 121.596 19.725 120.879 19.725C120.379 19.725 119.963 19.8667 119.629 20.15C119.296 20.4167 119.129 20.7417 119.129 21.125C119.129 21.8083 119.538 22.2333 120.354 22.4L122.204 22.775C123.338 23.025 124.204 23.475 124.804 24.125C125.404 24.775 125.704 25.5583 125.704 26.475C125.704 27.4917 125.296 28.4 124.479 29.2C123.679 29.9833 122.554 30.375 121.104 30.375C120.271 30.375 119.521 30.25 118.854 30C118.204 29.75 117.688 29.4333 117.304 29.05C116.938 28.65 116.646 28.2583 116.429 27.875C116.229 27.475 116.113 27.0833 116.079 26.7ZM131.48 22.85V30H128.58V11.9H131.48V19C132.263 17.9833 133.422 17.475 134.955 17.475C136.388 17.475 137.488 17.925 138.255 18.825C139.022 19.725 139.405 20.8833 139.405 22.3V30H136.505V22.8C136.505 21.9833 136.305 21.3333 135.905 20.85C135.505 20.35 134.872 20.1 134.005 20.1C133.238 20.1 132.63 20.3583 132.18 20.875C131.747 21.3917 131.513 22.05 131.48 22.85ZM144.961 22.575H150.936C150.902 21.8083 150.627 21.1667 150.111 20.65C149.611 20.1333 148.886 19.875 147.936 19.875C147.069 19.875 146.369 20.15 145.836 20.7C145.302 21.2333 145.011 21.8583 144.961 22.575ZM151.261 25.75L153.711 26.525C153.361 27.6417 152.702 28.5667 151.736 29.3C150.786 30.0167 149.611 30.375 148.211 30.375C146.477 30.375 145.002 29.7833 143.786 28.6C142.586 27.4167 141.986 25.8333 141.986 23.85C141.986 21.9833 142.569 20.45 143.736 19.25C144.919 18.05 146.311 17.45 147.911 17.45C149.777 17.45 151.236 18.025 152.286 19.175C153.336 20.3083 153.861 21.8417 153.861 23.775C153.861 24.2917 153.836 24.6 153.786 24.7H144.886C144.919 25.6167 145.252 26.375 145.886 26.975C146.536 27.575 147.311 27.875 148.211 27.875C149.777 27.875 150.794 27.1667 151.261 25.75ZM159.532 22.975V30H156.632V17.825H159.457V19.45C159.84 18.7833 160.349 18.2917 160.982 17.975C161.632 17.6417 162.324 17.475 163.057 17.475C164.49 17.475 165.582 17.925 166.332 18.825C167.082 19.725 167.457 20.8833 167.457 22.3V30H164.557V22.8C164.557 21.9833 164.357 21.3333 163.957 20.85C163.557 20.35 162.924 20.1 162.057 20.1C161.257 20.1 160.632 20.375 160.182 20.925C159.749 21.4583 159.532 22.1417 159.532 22.975ZM182.387 28.65C181.154 29.8 179.571 30.375 177.637 30.375C175.704 30.375 174.121 29.8 172.887 28.65C171.654 27.5 171.037 25.8917 171.037 23.825V12.275H174.012V23.65C174.012 24.8833 174.329 25.8417 174.962 26.525C175.612 27.1917 176.504 27.525 177.637 27.525C178.787 27.525 179.679 27.1917 180.312 26.525C180.946 25.8583 181.262 24.9 181.262 23.65V12.275H184.262V23.825C184.262 25.8917 183.637 27.5 182.387 28.65ZM190.806 34.75H187.931V17.825H190.731V19.475C191.047 18.925 191.547 18.4667 192.231 18.1C192.914 17.7333 193.706 17.55 194.606 17.55C196.356 17.55 197.731 18.15 198.731 19.35C199.731 20.5333 200.231 22.05 200.231 23.9C200.231 25.75 199.706 27.2833 198.656 28.5C197.606 29.7 196.222 30.3 194.506 30.3C193.672 30.3 192.931 30.1417 192.281 29.825C191.631 29.5083 191.139 29.1083 190.806 28.625V34.75ZM197.331 23.9C197.331 22.7667 197.031 21.8583 196.431 21.175C195.831 20.475 195.039 20.125 194.056 20.125C193.089 20.125 192.297 20.475 191.681 21.175C191.081 21.8583 190.781 22.7667 190.781 23.9C190.781 25.05 191.081 25.975 191.681 26.675C192.297 27.375 193.089 27.725 194.056 27.725C195.022 27.725 195.806 27.375 196.406 26.675C197.022 25.975 197.331 25.05 197.331 23.9Z" fill="#FF0515"/>
<path d="M82.05 46H80.85V38.91H85.26V40.04H82.05V42.03H84.93V43.14H82.05V46ZM88.8637 41.1V42.28C88.7303 42.26 88.6037 42.25 88.4837 42.25C87.6103 42.25 87.1737 42.7267 87.1737 43.68V46H86.0137V41.13H87.1437V41.91C87.257 41.65 87.4403 41.4467 87.6937 41.3C87.947 41.1467 88.2337 41.07 88.5537 41.07C88.6603 41.07 88.7637 41.08 88.8637 41.1ZM90.5932 43.03H92.9832C92.9699 42.7233 92.8599 42.4667 92.6532 42.26C92.4532 42.0533 92.1632 41.95 91.7832 41.95C91.4365 41.95 91.1565 42.06 90.9432 42.28C90.7299 42.4933 90.6132 42.7433 90.5932 43.03ZM93.1132 44.3L94.0932 44.61C93.9532 45.0567 93.6899 45.4267 93.3032 45.72C92.9232 46.0067 92.4532 46.15 91.8932 46.15C91.1999 46.15 90.6099 45.9133 90.1232 45.44C89.6432 44.9667 89.4032 44.3333 89.4032 43.54C89.4032 42.7933 89.6365 42.18 90.1032 41.7C90.5765 41.22 91.1332 40.98 91.7732 40.98C92.5199 40.98 93.1032 41.21 93.5232 41.67C93.9432 42.1233 94.1532 42.7367 94.1532 43.51C94.1532 43.7167 94.1432 43.84 94.1232 43.88H90.5632C90.5765 44.2467 90.7099 44.55 90.9632 44.79C91.2232 45.03 91.5332 45.15 91.8932 45.15C92.5199 45.15 92.9265 44.8667 93.1132 44.3ZM94.8317 44.68L95.8417 44.4C95.8617 44.6333 95.9584 44.83 96.1317 44.99C96.3051 45.15 96.5384 45.23 96.8317 45.23C97.0584 45.23 97.2351 45.1767 97.3617 45.07C97.4951 44.9633 97.5617 44.83 97.5617 44.67C97.5617 44.39 97.3717 44.21 96.9917 44.13L96.2717 43.97C95.8517 43.8767 95.5284 43.7033 95.3017 43.45C95.0751 43.1967 94.9617 42.8967 94.9617 42.55C94.9617 42.1233 95.1351 41.7567 95.4817 41.45C95.8284 41.1367 96.2517 40.98 96.7517 40.98C97.0717 40.98 97.3551 41.0267 97.6017 41.12C97.8484 41.2133 98.0384 41.3367 98.1717 41.49C98.3117 41.6367 98.4184 41.78 98.4917 41.92C98.5651 42.06 98.6117 42.2 98.6317 42.34L97.6517 42.62C97.6251 42.4333 97.5384 42.2667 97.3917 42.12C97.2517 41.9667 97.0384 41.89 96.7517 41.89C96.5517 41.89 96.3851 41.9467 96.2517 42.06C96.1184 42.1667 96.0517 42.2967 96.0517 42.45C96.0517 42.7233 96.2151 42.8933 96.5417 42.96L97.2817 43.11C97.7351 43.21 98.0817 43.39 98.3217 43.65C98.5617 43.91 98.6817 44.2233 98.6817 44.59C98.6817 44.9967 98.5184 45.36 98.1917 45.68C97.8717 45.9933 97.4217 46.15 96.8417 46.15C96.5084 46.15 96.2084 46.1 95.9417 46C95.6817 45.9 95.4751 45.7733 95.3217 45.62C95.1751 45.46 95.0584 45.3033 94.9717 45.15C94.8917 44.99 94.8451 44.8333 94.8317 44.68ZM100.992 43.14V46H99.832V38.76H100.992V41.6C101.305 41.1933 101.769 40.99 102.382 40.99C102.955 40.99 103.395 41.17 103.702 41.53C104.009 41.89 104.162 42.3533 104.162 42.92V46H103.002V43.12C103.002 42.7933 102.922 42.5333 102.762 42.34C102.602 42.14 102.349 42.04 102.002 42.04C101.695 42.04 101.452 42.1433 101.272 42.35C101.099 42.5567 101.005 42.82 100.992 43.14ZM111.735 46L110.245 43.2H109.365V46H108.155V38.91H110.875C111.541 38.91 112.078 39.1167 112.485 39.53C112.891 39.9367 113.095 40.4467 113.095 41.06C113.095 41.5667 112.951 42 112.665 42.36C112.378 42.72 111.988 42.96 111.495 43.08L113.095 46H111.735ZM109.365 42.14H110.655C111.021 42.14 111.315 42.0433 111.535 41.85C111.761 41.65 111.875 41.3867 111.875 41.06C111.875 40.7267 111.761 40.4633 111.535 40.27C111.315 40.07 111.021 39.97 110.655 39.97H109.365V42.14ZM114.919 43.03H117.309C117.296 42.7233 117.186 42.4667 116.979 42.26C116.779 42.0533 116.489 41.95 116.109 41.95C115.763 41.95 115.483 42.06 115.269 42.28C115.056 42.4933 114.939 42.7433 114.919 43.03ZM117.439 44.3L118.419 44.61C118.279 45.0567 118.016 45.4267 117.629 45.72C117.249 46.0067 116.779 46.15 116.219 46.15C115.526 46.15 114.936 45.9133 114.449 45.44C113.969 44.9667 113.729 44.3333 113.729 43.54C113.729 42.7933 113.963 42.18 114.429 41.7C114.903 41.22 115.459 40.98 116.099 40.98C116.846 40.98 117.429 41.21 117.849 41.67C118.269 42.1233 118.479 42.7367 118.479 43.51C118.479 43.7167 118.469 43.84 118.449 43.88H114.889C114.903 44.2467 115.036 44.55 115.289 44.79C115.549 45.03 115.859 45.15 116.219 45.15C116.846 45.15 117.253 44.8667 117.439 44.3ZM119.288 44.68C119.288 44.2667 119.421 43.9367 119.688 43.69C119.961 43.4367 120.318 43.2767 120.758 43.21L122.008 43.02C122.248 42.9867 122.368 42.87 122.368 42.67C122.368 42.45 122.291 42.2733 122.138 42.14C121.985 42 121.755 41.93 121.448 41.93C121.155 41.93 120.921 42.0133 120.748 42.18C120.575 42.34 120.475 42.55 120.448 42.81L119.388 42.57C119.435 42.13 119.645 41.7567 120.018 41.45C120.391 41.1367 120.865 40.98 121.438 40.98C122.145 40.98 122.665 41.15 122.998 41.49C123.338 41.83 123.508 42.2667 123.508 42.8V45.22C123.508 45.54 123.528 45.8 123.568 46H122.488C122.455 45.9 122.438 45.6933 122.438 45.38C122.118 45.8933 121.618 46.15 120.938 46.15C120.445 46.15 120.045 46.0067 119.738 45.72C119.438 45.4267 119.288 45.08 119.288 44.68ZM121.158 45.24C121.518 45.24 121.808 45.1433 122.028 44.95C122.255 44.75 122.368 44.4267 122.368 43.98V43.76L121.098 43.95C120.665 44.0233 120.448 44.2433 120.448 44.61C120.448 44.7833 120.511 44.9333 120.638 45.06C120.765 45.18 120.938 45.24 121.158 45.24ZM126.07 46H124.91V38.76H126.07V46ZM136.097 46H134.847L131.347 40.63V46H130.147V38.91H131.677L134.897 43.94V38.91H136.097V46ZM140.863 45.46C140.75 45.6733 140.563 45.84 140.303 45.96C140.05 46.08 139.777 46.14 139.483 46.14C138.917 46.14 138.467 45.9567 138.133 45.59C137.807 45.2233 137.643 44.76 137.643 44.2V41.13H138.803V43.99C138.803 44.3167 138.883 44.5833 139.043 44.79C139.203 44.9967 139.45 45.1 139.783 45.1C140.11 45.1 140.36 45 140.533 44.8C140.713 44.6 140.803 44.3367 140.803 44.01V41.13H141.963V45.11C141.963 45.4033 141.98 45.7 142.013 46H140.903C140.877 45.8533 140.863 45.6733 140.863 45.46ZM144.615 46H143.465V41.13H144.575V41.75C144.708 41.51 144.908 41.3233 145.175 41.19C145.448 41.0567 145.728 40.99 146.015 40.99C146.342 40.99 146.635 41.0633 146.895 41.21C147.155 41.3567 147.348 41.57 147.475 41.85C147.815 41.2767 148.342 40.99 149.055 40.99C149.535 40.99 149.942 41.1467 150.275 41.46C150.608 41.7733 150.775 42.2333 150.775 42.84V46H149.655V43.03C149.655 42.73 149.575 42.49 149.415 42.31C149.262 42.1233 149.028 42.03 148.715 42.03C148.415 42.03 148.172 42.1333 147.985 42.34C147.798 42.5467 147.705 42.8033 147.705 43.11V46H146.565V43.03C146.565 42.73 146.485 42.49 146.325 42.31C146.172 42.1233 145.938 42.03 145.625 42.03C145.318 42.03 145.072 42.1333 144.885 42.34C144.705 42.54 144.615 42.7967 144.615 43.11V46ZM153.325 46H152.195V38.76H153.335V41.73C153.455 41.5233 153.652 41.35 153.925 41.21C154.199 41.07 154.512 41 154.865 41C155.572 41 156.122 41.24 156.515 41.72C156.915 42.1933 157.115 42.8 157.115 43.54C157.115 44.2933 156.905 44.9133 156.485 45.4C156.072 45.88 155.519 46.12 154.825 46.12C154.132 46.12 153.632 45.8633 153.325 45.35V46ZM155.575 44.68C155.822 44.4 155.945 44.0233 155.945 43.55C155.945 43.0767 155.825 42.7067 155.585 42.44C155.345 42.1667 155.029 42.03 154.635 42.03C154.255 42.03 153.942 42.1667 153.695 42.44C153.449 42.7067 153.325 43.0767 153.325 43.55C153.325 44.0167 153.449 44.39 153.695 44.67C153.942 44.95 154.255 45.09 154.635 45.09C155.022 45.09 155.335 44.9533 155.575 44.68ZM159.04 43.03H161.43C161.417 42.7233 161.307 42.4667 161.1 42.26C160.9 42.0533 160.61 41.95 160.23 41.95C159.884 41.95 159.604 42.06 159.39 42.28C159.177 42.4933 159.06 42.7433 159.04 43.03ZM161.56 44.3L162.54 44.61C162.4 45.0567 162.137 45.4267 161.75 45.72C161.37 46.0067 160.9 46.15 160.34 46.15C159.647 46.15 159.057 45.9133 158.57 45.44C158.09 44.9667 157.85 44.3333 157.85 43.54C157.85 42.7933 158.084 42.18 158.55 41.7C159.024 41.22 159.58 40.98 160.22 40.98C160.967 40.98 161.55 41.21 161.97 41.67C162.39 42.1233 162.6 42.7367 162.6 43.51C162.6 43.7167 162.59 43.84 162.57 43.88H159.01C159.024 44.2467 159.157 44.55 159.41 44.79C159.67 45.03 159.98 45.15 160.34 45.15C160.967 45.15 161.374 44.8667 161.56 44.3ZM166.559 41.1V42.28C166.426 42.26 166.299 42.25 166.179 42.25C165.306 42.25 164.869 42.7267 164.869 43.68V46H163.709V41.13H164.839V41.91C164.952 41.65 165.136 41.4467 165.389 41.3C165.642 41.1467 165.929 41.07 166.249 41.07C166.356 41.07 166.459 41.08 166.559 41.1ZM167.107 44.68L168.117 44.4C168.137 44.6333 168.234 44.83 168.407 44.99C168.58 45.15 168.814 45.23 169.107 45.23C169.334 45.23 169.51 45.1767 169.637 45.07C169.77 44.9633 169.837 44.83 169.837 44.67C169.837 44.39 169.647 44.21 169.267 44.13L168.547 43.97C168.127 43.8767 167.804 43.7033 167.577 43.45C167.35 43.1967 167.237 42.8967 167.237 42.55C167.237 42.1233 167.41 41.7567 167.757 41.45C168.104 41.1367 168.527 40.98 169.027 40.98C169.347 40.98 169.63 41.0267 169.877 41.12C170.124 41.2133 170.314 41.3367 170.447 41.49C170.587 41.6367 170.694 41.78 170.767 41.92C170.84 42.06 170.887 42.2 170.907 42.34L169.927 42.62C169.9 42.4333 169.814 42.2667 169.667 42.12C169.527 41.9667 169.314 41.89 169.027 41.89C168.827 41.89 168.66 41.9467 168.527 42.06C168.394 42.1667 168.327 42.2967 168.327 42.45C168.327 42.7233 168.49 42.8933 168.817 42.96L169.557 43.11C170.01 43.21 170.357 43.39 170.597 43.65C170.837 43.91 170.957 44.2233 170.957 44.59C170.957 44.9967 170.794 45.36 170.467 45.68C170.147 45.9933 169.697 46.15 169.117 46.15C168.784 46.15 168.484 46.1 168.217 46C167.957 45.9 167.75 45.7733 167.597 45.62C167.45 45.46 167.334 45.3033 167.247 45.15C167.167 44.99 167.12 44.8333 167.107 44.68Z" fill="white"/>
<path d="M173.54 34.91C173.46 34.83 173.42 34.732 173.42 34.616C173.42 34.5 173.46 34.402 173.54 34.322C173.62 34.238 173.718 34.196 173.834 34.196C173.95 34.196 174.048 34.238 174.128 34.322C174.212 34.402 174.254 34.5 174.254 34.616C174.254 34.732 174.212 34.83 174.128 34.91C174.048 34.99 173.95 35.03 173.834 35.03C173.718 35.03 173.62 34.99 173.54 34.91ZM176.28 32.546C176.036 32.546 175.828 32.634 175.656 32.81C175.488 32.986 175.404 33.234 175.404 33.554C175.404 33.87 175.488 34.118 175.656 34.298C175.828 34.478 176.038 34.568 176.286 34.568C176.526 34.568 176.708 34.508 176.832 34.388C176.96 34.268 177.046 34.13 177.09 33.974L177.588 34.19C177.508 34.43 177.356 34.64 177.132 34.82C176.912 35 176.63 35.09 176.286 35.09C175.866 35.09 175.518 34.944 175.242 34.652C174.966 34.36 174.828 33.994 174.828 33.554C174.828 33.106 174.966 32.74 175.242 32.456C175.518 32.168 175.864 32.024 176.28 32.024C176.632 32.024 176.916 32.114 177.132 32.294C177.352 32.474 177.496 32.69 177.564 32.942L177.054 33.158C177.01 32.99 176.926 32.846 176.802 32.726C176.678 32.606 176.504 32.546 176.28 32.546ZM178.814 34.316C178.99 34.496 179.204 34.586 179.456 34.586C179.708 34.586 179.92 34.496 180.092 34.316C180.268 34.132 180.356 33.878 180.356 33.554C180.356 33.234 180.268 32.984 180.092 32.804C179.92 32.62 179.708 32.528 179.456 32.528C179.204 32.528 178.99 32.62 178.814 32.804C178.642 32.984 178.556 33.234 178.556 33.554C178.556 33.878 178.642 34.132 178.814 34.316ZM178.394 32.462C178.674 32.17 179.028 32.024 179.456 32.024C179.884 32.024 180.236 32.17 180.512 32.462C180.792 32.75 180.932 33.114 180.932 33.554C180.932 33.998 180.794 34.366 180.518 34.658C180.242 34.946 179.888 35.09 179.456 35.09C179.024 35.09 178.67 34.946 178.394 34.658C178.118 34.366 177.98 33.998 177.98 33.554C177.98 33.114 178.118 32.75 178.394 32.462ZM182.212 35H181.654V32.114H182.194V32.498C182.282 32.346 182.406 32.23 182.566 32.15C182.726 32.07 182.894 32.03 183.07 32.03C183.258 32.03 183.43 32.076 183.586 32.168C183.742 32.26 183.858 32.396 183.934 32.576C184.134 32.212 184.456 32.03 184.9 32.03C185.176 32.03 185.41 32.124 185.602 32.312C185.798 32.5 185.896 32.772 185.896 33.128V35H185.338V33.188C185.338 32.988 185.286 32.828 185.182 32.708C185.082 32.588 184.93 32.528 184.726 32.528C184.53 32.528 184.37 32.598 184.246 32.738C184.122 32.874 184.06 33.046 184.06 33.254V35H183.496V33.188C183.496 32.988 183.444 32.828 183.34 32.708C183.24 32.588 183.088 32.528 182.884 32.528C182.684 32.528 182.522 32.596 182.398 32.732C182.274 32.868 182.212 33.044 182.212 33.26V35Z" fill="#FF0515"/>
<path d="M75.4905 61.0001H14.3023C6.39841 61.0001 0 54.5883 0 46.6978V16.3322C0 11.3049 4.07294 7.23193 9.10026 7.23193H54.7091C59.7364 7.23193 63.8094 11.3049 63.8094 16.3322V33.78C63.8094 33.78 61.8737 51.5772 75.4905 61.0001Z" fill="white"/>
<path d="M45.8916 14.5443H10.8481V11.9097C10.8481 5.33649 16.1846 0 22.7578 0H45.8916C49.9107 0 53.1637 3.25297 53.1637 7.27215C53.1637 11.2913 49.9107 14.5443 45.8916 14.5443Z" fill="url(#paint0_linear_761_4549)"/>
<path d="M45.8916 14.5443H10.8481V11.9097C10.8481 5.33649 16.1846 0 22.7578 0H45.8916C49.9107 0 53.1637 3.25297 53.1637 7.27215C53.1637 11.2913 49.9107 14.5443 45.8916 14.5443Z" fill="url(#paint1_linear_761_4549)"/>
<path d="M28.6992 37.0331H45.8916C49.9107 37.0331 53.1637 33.7801 53.1637 29.7609C53.1637 25.7417 49.9107 22.4888 45.8916 22.4888H18.1203C14.1011 22.4888 10.8481 25.7417 10.8481 29.7609V37.0331V53.6743C10.8481 53.6609 14.2624 37.0331 28.6992 37.0331Z" fill="url(#paint2_linear_761_4549)"/>
<path d="M25.6474 52.5853C26.8798 52.5853 27.8788 51.5863 27.8788 50.3539C27.8788 49.1216 26.8798 48.1226 25.6474 48.1226C24.415 48.1226 23.416 49.1216 23.416 50.3539C23.416 51.5863 24.415 52.5853 25.6474 52.5853Z" fill="url(#paint3_linear_761_4549)"/>
<path d="M38.2963 52.5853C39.5287 52.5853 40.5277 51.5863 40.5277 50.3539C40.5277 49.1216 39.5287 48.1226 38.2963 48.1226C37.064 48.1226 36.0649 49.1216 36.0649 50.3539C36.0649 51.5863 37.064 52.5853 38.2963 52.5853Z" fill="url(#paint4_linear_761_4549)"/>
<path d="M50.9452 52.5853C52.1776 52.5853 53.1766 51.5863 53.1766 50.3539C53.1766 49.1216 52.1776 48.1226 50.9452 48.1226C49.7129 48.1226 48.7139 49.1216 48.7139 50.3539C48.7139 51.5863 49.7129 52.5853 50.9452 52.5853Z" fill="url(#paint5_linear_761_4549)"/>
<defs>
<linearGradient id="paint0_linear_761_4549" x1="10.8528" y1="7.27309" x2="53.1691" y2="7.27309" gradientUnits="userSpaceOnUse">
<stop stop-color="#FF81FF"/>
<stop offset="0.5561" stop-color="#FF0FFF"/>
<stop offset="1" stop-color="#FF81FF"/>
</linearGradient>
<linearGradient id="paint1_linear_761_4549" x1="10.8528" y1="7.27309" x2="53.1691" y2="7.27309" gradientUnits="userSpaceOnUse">
<stop stop-color="#F58466"/>
<stop offset="0.5561" stop-color="#FF0F00"/>
<stop offset="1" stop-color="#F58466"/>
</linearGradient>
<linearGradient id="paint2_linear_761_4549" x1="10.8528" y1="38.0737" x2="53.1691" y2="38.0737" gradientUnits="userSpaceOnUse">
<stop stop-color="#7D29FE"/>
<stop offset="1" stop-color="#32F1FF"/>
</linearGradient>
<linearGradient id="paint3_linear_761_4549" x1="23.4151" y1="50.3607" x2="27.8671" y2="50.3607" gradientUnits="userSpaceOnUse">
<stop stop-color="#F58466"/>
<stop offset="0.5561" stop-color="#FF0F00"/>
<stop offset="1" stop-color="#F58466"/>
</linearGradient>
<linearGradient id="paint4_linear_761_4549" x1="36.0657" y1="50.3607" x2="40.5178" y2="50.3607" gradientUnits="userSpaceOnUse">
<stop stop-color="#7D29FE"/>
<stop offset="1" stop-color="#32F1FF"/>
</linearGradient>
<linearGradient id="paint5_linear_761_4549" x1="48.7166" y1="50.3607" x2="53.1686" y2="50.3607" gradientUnits="userSpaceOnUse">
<stop stop-color="#F58466"/>
<stop offset="0.5561" stop-color="#FF0F00"/>
<stop offset="1" stop-color="#F58466"/>
</linearGradient>
</defs>
</svg>
