<svg width="85" height="72" viewBox="0 0 85 72" fill="none" xmlns="http://www.w3.org/2000/svg">
<path d="M79.9029 44C82.6944 44 84.96 41.76 84.96 39C84.96 36.24 82.6944 34 79.9029 34H44.5029V30H71.8114C74.603 30 76.8686 27.76 76.8686 25C76.8686 22.32 74.7243 20.2 72.0946 20.04L31.8398 20L37.8274 9.6C38.1915 8.92 38.3938 8.24 38.3938 7.44C38.3938 6.4 38.0297 5.44 37.3419 4.64L32.8512 0L3.80297 27.2C1.37554 29.44 0 32.6 0 35.88V60C0 66.64 5.42126 72 12.1371 72H67.7657C70.5573 72 72.8229 69.76 72.8229 67C72.8229 64.24 70.5573 62 67.7657 62H44.5029V58H75.8571C78.6487 58 80.9143 55.76 80.9143 53C80.9143 50.24 78.6487 48 75.8571 48H44.5029V44H79.9029ZM36.4114 64H12.1371C9.912 64 8.09143 62.2 8.09143 60V36C8.09143 34.44 9.02194 33.44 9.54789 33L24.2743 19.48V28H36.4114V64Z" fill="url(#paint0_linear_761_1196)"/>
<defs>
<linearGradient id="paint0_linear_761_1196" x1="43.037" y1="71.9551" x2="43.037" y2="2.12969e-06" gradientUnits="userSpaceOnUse">
<stop stop-color="#7D29FE"/>
<stop offset="0.530769" stop-color="#32F1FF"/>
</linearGradient>
</defs>
</svg>
