<svg width="27" height="27" viewBox="0 0 27 27" fill="none" xmlns="http://www.w3.org/2000/svg">
<path d="M24.0715 27L16.1169 19.0454C14.4554 20.1254 12.5031 20.7692 10.3846 20.7692C4.65231 20.7692 0 16.1169 0 10.3846C0 4.65231 4.65231 0 10.3846 0C16.1169 0 20.7692 4.65231 20.7692 10.3846C20.7692 12.5031 20.1254 14.4554 19.0454 16.0962L27 24.0715L24.0715 27ZM16.6154 10.3846C16.6154 6.95769 13.8115 4.15385 10.3846 4.15385C6.95769 4.15385 4.15385 6.95769 4.15385 10.3846C4.15385 13.8115 6.95769 16.6154 10.3846 16.6154C13.8115 16.6154 16.6154 13.8115 16.6154 10.3846Z" fill="#807F7F"/>
</svg>
