<svg width="72" height="72" viewBox="0 0 72 72" fill="none" xmlns="http://www.w3.org/2000/svg">
<path d="M36 26.1818C41.4 26.1818 45.8182 30.6 45.8182 36C45.8182 41.4 41.4 45.8182 36 45.8182C30.6 45.8182 26.1818 41.4 26.1818 36C26.1818 30.6 30.6 26.1818 36 26.1818ZM36 19.6364C26.9673 19.6364 19.6364 26.9673 19.6364 36C19.6364 45.0327 26.9673 52.3636 36 52.3636C45.0327 52.3636 52.3636 45.0327 52.3636 36C52.3636 26.9673 45.0327 19.6364 36 19.6364ZM3.27273 39.2727H9.81818C11.6182 39.2727 13.0909 37.8 13.0909 36C13.0909 34.2 11.6182 32.7273 9.81818 32.7273H3.27273C1.47273 32.7273 0 34.2 0 36C0 37.8 1.47273 39.2727 3.27273 39.2727ZM62.1818 39.2727H68.7273C70.5273 39.2727 72 37.8 72 36C72 34.2 70.5273 32.7273 68.7273 32.7273H62.1818C60.3818 32.7273 58.9091 34.2 58.9091 36C58.9091 37.8 60.3818 39.2727 62.1818 39.2727ZM32.7273 3.27273V9.81818C32.7273 11.6182 34.2 13.0909 36 13.0909C37.8 13.0909 39.2727 11.6182 39.2727 9.81818V3.27273C39.2727 1.47273 37.8 0 36 0C34.2 0 32.7273 1.47273 32.7273 3.27273ZM32.7273 62.1818V68.7273C32.7273 70.5273 34.2 72 36 72C37.8 72 39.2727 70.5273 39.2727 68.7273V62.1818C39.2727 60.3818 37.8 58.9091 36 58.9091C34.2 58.9091 32.7273 60.3818 32.7273 62.1818ZM16.3309 11.7164C15.0545 10.44 12.96 10.44 11.7164 11.7164C10.44 12.9927 10.44 15.0873 11.7164 16.3309L15.1855 19.8C16.4618 21.0764 18.5564 21.0764 19.8 19.8C21.0436 18.5236 21.0764 16.4291 19.8 15.1855L16.3309 11.7164ZM56.8145 52.2C55.5382 50.9236 53.4436 50.9236 52.2 52.2C50.9236 53.4764 50.9236 55.5709 52.2 56.8145L55.6691 60.2836C56.9455 61.56 59.04 61.56 60.2836 60.2836C61.56 59.0073 61.56 56.9127 60.2836 55.6691L56.8145 52.2ZM60.2836 16.3309C61.56 15.0545 61.56 12.96 60.2836 11.7164C59.0073 10.44 56.9127 10.44 55.6691 11.7164L52.2 15.1855C50.9236 16.4618 50.9236 18.5564 52.2 19.8C53.4764 21.0436 55.5709 21.0764 56.8145 19.8L60.2836 16.3309ZM19.8 56.8145C21.0764 55.5382 21.0764 53.4436 19.8 52.2C18.5236 50.9236 16.4291 50.9236 15.1855 52.2L11.7164 55.6691C10.44 56.9455 10.44 59.04 11.7164 60.2836C12.9927 61.5273 15.0873 61.56 16.3309 60.2836L19.8 56.8145Z" fill="url(#paint0_linear_761_1202)"/>
<defs>
<linearGradient id="paint0_linear_761_1202" x1="36.472" y1="71.9551" x2="36.472" y2="2.12969e-06" gradientUnits="userSpaceOnUse">
<stop stop-color="#7D29FE"/>
<stop offset="0.530769" stop-color="#32F1FF"/>
</linearGradient>
</defs>
</svg>
